<svg xmlns="http://www.w3.org/2000/svg" xmlns:svgjs="http://svgjs.com/svgjs" xmlns:xlink="http://www.w3.org/1999/xlink" width="288" height="288"><svg xmlns="http://www.w3.org/2000/svg" width="288" height="288" data-name="Layer 1" viewBox="0 0 32 32"><path fill="#0c4a6e" d="M29,26.013V25.5a.479.479,0,0,0-.023-.116A3.5,3.5,0,0,0,27,19h-.013A3.122,3.122,0,0,0,24,16.013V15.5a.479.479,0,0,0-.023-.116A3.5,3.5,0,0,0,22,9a3.456,3.456,0,0,0-1.147.209A3.144,3.144,0,0,0,18,7.012V6.5a.479.479,0,0,0-.023-.116,3.5,3.5,0,1,0-3.953,0A.479.479,0,0,0,14,6.5v.512a3.144,3.144,0,0,0-2.854,2.2A3.456,3.456,0,0,0,10,9a3.5,3.5,0,0,0-1.977,6.384A.479.479,0,0,0,8,15.5v.513A3.122,3.122,0,0,0,5.013,19H5a3.5,3.5,0,0,0-1.977,6.384A.479.479,0,0,0,3,25.5v.513a3.123,3.123,0,0,0-3,3.112V30.5A1.5,1.5,0,0,0,1.5,32h7A1.5,1.5,0,0,0,10,30.5V29.125a3.123,3.123,0,0,0-3-3.112V25.5a.479.479,0,0,0-.023-.116A3.5,3.5,0,0,0,8.5,22.5a3.455,3.455,0,0,0-.051-.5h4.1a3.455,3.455,0,0,0-.051.5,3.5,3.5,0,0,0,1.523,2.884A.479.479,0,0,0,14,25.5v.513a3.123,3.123,0,0,0-3,3.112V30.5A1.5,1.5,0,0,0,12.5,32h7A1.5,1.5,0,0,0,21,30.5V29.125a3.123,3.123,0,0,0-3-3.112V25.5a.479.479,0,0,0-.023-.116A3.5,3.5,0,0,0,19.5,22.5a3.455,3.455,0,0,0-.051-.5h4.1a3.455,3.455,0,0,0-.051.5,3.5,3.5,0,0,0,1.523,2.884A.479.479,0,0,0,25,25.5v.513a3.123,3.123,0,0,0-3,3.112V30.5A1.5,1.5,0,0,0,23.5,32h7A1.5,1.5,0,0,0,32,30.5V29.125A3.123,3.123,0,0,0,29,26.013ZM27,20a2.5,2.5,0,0,1,2.239,1.409l-1.983-.562a2.222,2.222,0,0,0-1.434.076l-1.02.411A2.492,2.492,0,0,1,27,20Zm-2.5-7.49a2.5,2.5,0,0,1-5,0,.49.49,0,0,0,.115-.022l1.58-.638a1.206,1.206,0,0,1,.786-.042l2.453.7A.457.457,0,0,0,24.5,12.51ZM23,15.837V16a1,1,0,0,1-2,0v-.163a3.145,3.145,0,0,0,2,0Zm-3,.176a3.127,3.127,0,0,0-3,3.117v.033a3.145,3.145,0,0,0-2,0V19.13a3.127,3.127,0,0,0-3-3.117V15.5a.479.479,0,0,0-.023-.116A3.491,3.491,0,0,0,13.437,13h5.126a3.491,3.491,0,0,0,1.461,2.384A.479.479,0,0,0,20,15.5v.513Zm-1.763,5.4-1.983-.562a2.222,2.222,0,0,0-1.434.076l-1.02.411a2.48,2.48,0,0,1,4.437.075ZM22,10a2.5,2.5,0,0,1,2.239,1.41l-1.984-.564a2.236,2.236,0,0,0-1.433.076l-1.02.412A2.492,2.492,0,0,1,22,10ZM16,1a2.5,2.5,0,0,1,2.239,1.41l-1.984-.564a2.236,2.236,0,0,0-1.433.076l-1.02.412A2.492,2.492,0,0,1,16,1ZM13.5,3.51a.49.49,0,0,0,.115-.022L15.2,2.85a1.213,1.213,0,0,1,.786-.042l2.453.7a.476.476,0,0,0,.064,0,2.5,2.5,0,0,1-5,0ZM17,6.837V7a1,1,0,0,1-2,0V6.837a3.145,3.145,0,0,0,2,0ZM14.13,8h.148a1.982,1.982,0,0,0,3.458-.027A.483.483,0,0,0,17.87,8a2.135,2.135,0,0,1,2.073,1.682A3.487,3.487,0,0,0,18.551,12h-5.1a3.487,3.487,0,0,0-1.393-2.318A2.135,2.135,0,0,1,14.13,8ZM10,10a2.5,2.5,0,0,1,2.239,1.41l-1.984-.564a2.236,2.236,0,0,0-1.433.076l-1.02.412A2.492,2.492,0,0,1,10,10ZM7.5,12.51a.49.49,0,0,0,.115-.022L9.2,11.85a1.206,1.206,0,0,1,.786-.042l2.453.7a.458.458,0,0,0,.064.005,2.5,2.5,0,0,1-5,0ZM11,15.837V16a1,1,0,0,1-2,0v-.163a3.145,3.145,0,0,0,2,0ZM5,20a2.5,2.5,0,0,1,2.239,1.409l-1.983-.562a2.222,2.222,0,0,0-1.434.076l-1.02.411A2.492,2.492,0,0,1,5,20Zm4,9.125V30.5a.5.5,0,0,1-.5.5h-7a.5.5,0,0,1-.5-.5V29.125A2.127,2.127,0,0,1,3.125,27h.153a1.982,1.982,0,0,0,3.459-.028A.485.485,0,0,0,6.875,27,2.127,2.127,0,0,1,9,29.125ZM4,26v-.163A3.45,3.45,0,0,0,5,26a3.45,3.45,0,0,0,1-.163V26a1,1,0,0,1-2,0Zm1-1a2.5,2.5,0,0,1-2.5-2.491.492.492,0,0,0,.115-.022L4.2,21.851a1.193,1.193,0,0,1,.786-.042l2.453.7a.487.487,0,0,0,.065,0A2.5,2.5,0,0,1,5,25Zm7.851-4h-4.7A3.5,3.5,0,0,0,6,19.163V19.13A2.132,2.132,0,0,1,8.13,17h.148a1.982,1.982,0,0,0,3.458-.027A.484.484,0,0,0,11.87,17,2.132,2.132,0,0,1,14,19.13v.506A3.513,3.513,0,0,0,12.851,21ZM20,29.125V30.5a.5.5,0,0,1-.5.5h-7a.5.5,0,0,1-.5-.5V29.125A2.127,2.127,0,0,1,14.125,27h.153a1.982,1.982,0,0,0,3.459-.028.485.485,0,0,0,.138.028A2.127,2.127,0,0,1,20,29.125ZM15,26v-.163a3.145,3.145,0,0,0,2,0V26a1,1,0,0,1-2,0Zm1-1a2.5,2.5,0,0,1-2.5-2.491.492.492,0,0,0,.115-.022l1.581-.637a1.193,1.193,0,0,1,.786-.042l2.453.7a.476.476,0,0,0,.065,0A2.5,2.5,0,0,1,16,25Zm7.851-4h-4.7A3.513,3.513,0,0,0,18,19.635V19.13A2.132,2.132,0,0,1,20.13,17h.148a1.982,1.982,0,0,0,3.458-.027A.484.484,0,0,0,23.87,17,2.132,2.132,0,0,1,26,19.13v.033A3.5,3.5,0,0,0,23.851,21Zm.65,1.509a.492.492,0,0,0,.115-.022l1.581-.637a1.193,1.193,0,0,1,.786-.042l2.453.7a.476.476,0,0,0,.065,0,2.5,2.5,0,0,1-5,0ZM28,25.837V26a1,1,0,0,1-2,0v-.163a3.145,3.145,0,0,0,2,0ZM31,30.5a.5.5,0,0,1-.5.5h-7a.5.5,0,0,1-.5-.5V29.125A2.127,2.127,0,0,1,25.125,27h.153a1.982,1.982,0,0,0,3.459-.028.485.485,0,0,0,.138.028A2.127,2.127,0,0,1,31,29.125Z" class="color000 svgShape"/></svg></svg>