<svg xmlns="http://www.w3.org/2000/svg" xmlns:svgjs="http://svgjs.com/svgjs" xmlns:xlink="http://www.w3.org/1999/xlink" width="288" height="288"><svg xmlns="http://www.w3.org/2000/svg" width="288" height="288" enable-background="new 0 0 24 24" viewBox="0 0 24 24"><path fill="#fff" d="M17 8c1.103 0 2 .897 2 2 0 .5522.4478 1 1 1s1-.4478 1-1c0-2.2056-1.7944-4-4-4s-4 1.7944-4 4v5c0 2.2056 1.7944 4 4 4s4-1.7944 4-4v-2c0-.5522-.4478-1-1-1h-2c-.5522 0-1 .4478-1 1s.4478 1 1 1h1v1c0 1.103-.897 2-2 2s-2-.897-2-2v-5C15 8.897 15.897 8 17 8zM7.5 17H7c-1.103 0-2-.897-2-2 0-.5522-.4478-1-1-1s-1 .4478-1 1c0 2.2056 1.7944 4 4 4h.5c2.4814 0 4.5-2.0186 4.5-4.5S9.9814 10 7.5 10h-2C5.2241 10 5 9.7759 5 9.5v-2C5 7.2241 5.2241 7 5.5 7H11c.5522 0 1-.4478 1-1s-.4478-1-1-1H5.5C4.1216 5 3 6.1216 3 7.5v2C3 10.8784 4.1216 12 5.5 12h2c1.3784 0 2.5 1.1216 2.5 2.5S8.8784 17 7.5 17z" class="color000 svgShape"/></svg></svg>